# MagicaVoxel @ Ephtracy

# group
o 

# material
mtllib tank_artem.mtl
usemtl palette

# normals
vn -1 0 0
vn 1 0 0
vn 0 0 1
vn 0 0 -1
vn 0 -1 0
vn 0 1 0

# texcoords
vt 0.767578 0.5
vt 0.904297 0.5
vt 0.978516 0.5
vt 0.986328 0.5

# verts
v 0 2.4 -0.3
v 0 2.4 -0.4
v 0 2.4 -0.5
v 0 2.4 -0.6
v 0 2.5 -0.3
v 0 2.5 -0.4
v 0 2.5 -0.5
v 0 2.5 -0.6
v 0.3 2.4 -0.4
v 0.3 2.4 -0.5
v 0.3 2.5 -0.4
v 0.3 2.5 -0.5
v 0.4 2.1 -0.1
v 0.4 2.1 -0.8
v 0.4 2.2 -0.1
v 0.4 2.2 -0.8
v 0.5 2 -0.1
v 0.5 2 -0.8
v 0.5 2.1 0
v 0.5 2.1 -0.1
v 0.5 2.1 -0.8
v 0.5 2.1 -0.9
v 0.5 2.2 -0.1
v 0.5 2.2 -0.8
v 0.5 2.3 0
v 0.5 2.3 -0.9
v 0.6 2.3 -0.2
v 0.6 2.3 -0.7
v 0.6 2.4 -0.2
v 0.6 2.4 -0.3
v 0.6 2.4 -0.4
v 0.6 2.4 -0.5
v 0.6 2.4 -0.6
v 0.6 2.4 -0.7
v 0.7 2 0
v 0.7 2 -0.1
v 0.7 2 -0.8
v 0.7 2 -0.9
v 0.7 2.1 0
v 0.7 2.1 -0.1
v 0.7 2.1 -0.8
v 0.7 2.1 -0.9
v 0.7 2.4 -0.2
v 0.7 2.4 -0.3
v 0.7 2.4 -0.4
v 0.7 2.4 -0.5
v 0.7 2.4 -0.6
v 0.7 2.4 -0.7
v 0.7 2.5 -0.2
v 0.7 2.5 -0.3
v 0.7 2.5 -0.4
v 0.7 2.5 -0.5
v 0.7 2.5 -0.6
v 0.7 2.5 -0.7
v 0.8 2.3 -0.1
v 0.8 2.3 -0.2
v 0.8 2.3 -0.7
v 0.8 2.3 -0.8
v 0.8 2.4 -0.1
v 0.8 2.4 -0.2
v 0.8 2.4 -0.7
v 0.8 2.4 -0.8
v 0.9 2.5 -0.3
v 0.9 2.5 -0.6
v 0.9 2.6 -0.3
v 0.9 2.6 -0.6
v 0.4 2.4 -0.4
v 0.4 2.4 -0.5
v 0.4 2.5 -0.4
v 0.4 2.5 -0.5
v 1.2 2.5 -0.3
v 1.2 2.5 -0.6
v 1.2 2.6 -0.3
v 1.2 2.6 -0.6
v 1.3 2.3 -0.1
v 1.3 2.3 -0.2
v 1.3 2.3 -0.7
v 1.3 2.3 -0.8
v 1.3 2.4 -0.1
v 1.3 2.4 -0.2
v 1.3 2.4 -0.7
v 1.3 2.4 -0.8
v 1.4 2 0
v 1.4 2 -0.1
v 1.4 2 -0.8
v 1.4 2 -0.9
v 1.4 2.1 0
v 1.4 2.1 -0.1
v 1.4 2.1 -0.8
v 1.4 2.1 -0.9
v 1.4 2.3 -0.2
v 1.4 2.3 -0.3
v 1.4 2.3 -0.6
v 1.4 2.3 -0.7
v 1.4 2.4 -0.3
v 1.4 2.4 -0.6
v 1.4 2.5 -0.2
v 1.4 2.5 -0.3
v 1.4 2.5 -0.6
v 1.4 2.5 -0.7
v 1.5 2.4 -0.3
v 1.5 2.4 -0.6
v 1.5 2.5 -0.3
v 1.5 2.5 -0.6
v 1.6 2 -0.1
v 1.6 2 -0.8
v 1.6 2.1 0
v 1.6 2.1 -0.1
v 1.6 2.1 -0.2
v 1.6 2.1 -0.3
v 1.6 2.1 -0.4
v 1.6 2.1 -0.5
v 1.6 2.1 -0.6
v 1.6 2.1 -0.7
v 1.6 2.1 -0.8
v 1.6 2.1 -0.9
v 1.6 2.3 0
v 1.6 2.3 -0.1
v 1.6 2.3 -0.8
v 1.6 2.3 -0.9
v 1.7 2.1 -0.1
v 1.7 2.1 -0.2
v 1.7 2.1 -0.3
v 1.7 2.1 -0.4
v 1.7 2.1 -0.5
v 1.7 2.1 -0.6
v 1.7 2.1 -0.7
v 1.7 2.1 -0.8
v 1.7 2.3 -0.1
v 1.7 2.3 -0.2
v 1.7 2.3 -0.3
v 1.7 2.3 -0.4
v 1.7 2.3 -0.5
v 1.7 2.3 -0.6
v 1.7 2.3 -0.7
v 1.7 2.3 -0.8
v 0.5 2.1 0
v 0.5 2.3 0
v 0.6 2.1 0
v 0.6 2.2 0
v 0.7 2 0
v 0.7 2.1 0
v 1.4 2 0
v 1.4 2.1 0
v 1.5 2.1 0
v 1.5 2.2 0
v 1.6 2.1 0
v 1.6 2.3 0
v 0.4 2.1 -0.1
v 0.4 2.2 -0.1
v 0.5 2 -0.1
v 0.5 2.1 -0.1
v 0.5 2.2 -0.1
v 0.6 2.1 -0.1
v 0.7 2 -0.1
v 0.7 2.1 -0.1
v 0.8 2.3 -0.1
v 0.8 2.4 -0.1
v 1.3 2.3 -0.1
v 1.3 2.4 -0.1
v 1.4 2 -0.1
v 1.4 2.1 -0.1
v 1.5 2.1 -0.1
v 1.6 2 -0.1
v 1.6 2.1 -0.1
v 1.6 2.3 -0.1
v 1.7 2.1 -0.1
v 1.7 2.3 -0.1
v 0.6 2.3 -0.2
v 0.6 2.4 -0.2
v 0.7 2.4 -0.2
v 0.7 2.5 -0.2
v 0.8 2.3 -0.2
v 0.8 2.4 -0.2
v 0.8 2.5 -0.2
v 1.3 2.3 -0.2
v 1.3 2.4 -0.2
v 1.3 2.5 -0.2
v 1.4 2.3 -0.2
v 1.4 2.5 -0.2
v 0 2.4 -0.3
v 0 2.5 -0.3
v 0.1 2.4 -0.3
v 0.1 2.5 -0.3
v 0.3 2.4 -0.3
v 0.3 2.5 -0.3
v 0.4 2.4 -0.3
v 0.4 2.5 -0.3
v 0.6 2.4 -0.3
v 0.7 2.4 -0.3
v 0.7 2.5 -0.3
v 0.9 2.5 -0.3
v 0.9 2.6 -0.3
v 1.2 2.5 -0.3
v 1.2 2.6 -0.3
v 1.4 2.4 -0.3
v 1.4 2.5 -0.3
v 1.5 2.4 -0.3
v 1.5 2.5 -0.3
v 0 2.4 -0.5
v 0 2.5 -0.5
v 0.1 2.4 -0.5
v 0.1 2.5 -0.5
v 0.3 2.4 -0.5
v 0.3 2.5 -0.5
v 0.4 2.4 -0.5
v 0.4 2.5 -0.5
v 0.6 2.4 -0.5
v 0.7 2.4 -0.5
v 0.7 2.5 -0.5
v 0 2.4 -0.4
v 0 2.5 -0.4
v 0.1 2.4 -0.4
v 0.1 2.5 -0.4
v 0.3 2.4 -0.4
v 0.3 2.5 -0.4
v 0.4 2.4 -0.4
v 0.4 2.5 -0.4
v 0.6 2.4 -0.4
v 0.7 2.4 -0.4
v 0.7 2.5 -0.4
v 0 2.4 -0.6
v 0 2.5 -0.6
v 0.1 2.4 -0.6
v 0.1 2.5 -0.6
v 0.3 2.4 -0.6
v 0.3 2.5 -0.6
v 0.4 2.4 -0.6
v 0.4 2.5 -0.6
v 0.6 2.4 -0.6
v 0.7 2.4 -0.6
v 0.7 2.5 -0.6
v 0.9 2.5 -0.6
v 0.9 2.6 -0.6
v 1.2 2.5 -0.6
v 1.2 2.6 -0.6
v 1.4 2.4 -0.6
v 1.4 2.5 -0.6
v 1.5 2.4 -0.6
v 1.5 2.5 -0.6
v 0.6 2.3 -0.7
v 0.6 2.4 -0.7
v 0.7 2.4 -0.7
v 0.7 2.5 -0.7
v 0.8 2.3 -0.7
v 0.8 2.4 -0.7
v 0.8 2.5 -0.7
v 1.3 2.3 -0.7
v 1.3 2.4 -0.7
v 1.3 2.5 -0.7
v 1.4 2.3 -0.7
v 1.4 2.5 -0.7
v 0.4 2.1 -0.8
v 0.4 2.2 -0.8
v 0.5 2 -0.8
v 0.5 2.1 -0.8
v 0.5 2.2 -0.8
v 0.6 2.1 -0.8
v 0.7 2 -0.8
v 0.7 2.1 -0.8
v 0.8 2.3 -0.8
v 0.8 2.4 -0.8
v 1.3 2.3 -0.8
v 1.3 2.4 -0.8
v 1.4 2 -0.8
v 1.4 2.1 -0.8
v 1.5 2.1 -0.8
v 1.6 2 -0.8
v 1.6 2.1 -0.8
v 1.6 2.3 -0.8
v 1.7 2.1 -0.8
v 1.7 2.3 -0.8
v 0.5 2.1 -0.9
v 0.5 2.3 -0.9
v 0.6 2.1 -0.9
v 0.6 2.2 -0.9
v 0.7 2 -0.9
v 0.7 2.1 -0.9
v 1.4 2 -0.9
v 1.4 2.1 -0.9
v 1.5 2.1 -0.9
v 1.5 2.2 -0.9
v 1.6 2.1 -0.9
v 1.6 2.3 -0.9
v 0.7 2 0
v 1.4 2 0
v 0.5 2 -0.1
v 0.7 2 -0.1
v 1.4 2 -0.1
v 1.6 2 -0.1
v 0.5 2 -0.8
v 0.7 2 -0.8
v 1.4 2 -0.8
v 1.6 2 -0.8
v 0.7 2 -0.9
v 1.4 2 -0.9
v 0.5 2.1 0
v 0.6 2.1 0
v 0.7 2.1 0
v 1.4 2.1 0
v 1.5 2.1 0
v 1.6 2.1 0
v 0.4 2.1 -0.1
v 0.5 2.1 -0.1
v 0.6 2.1 -0.1
v 0.7 2.1 -0.1
v 1.4 2.1 -0.1
v 1.5 2.1 -0.1
v 1.6 2.1 -0.1
v 1.7 2.1 -0.1
v 1.6 2.1 -0.2
v 1.7 2.1 -0.2
v 1.6 2.1 -0.3
v 1.7 2.1 -0.3
v 1.6 2.1 -0.4
v 1.7 2.1 -0.4
v 1.6 2.1 -0.5
v 1.7 2.1 -0.5
v 1.6 2.1 -0.6
v 1.7 2.1 -0.6
v 1.6 2.1 -0.7
v 1.7 2.1 -0.7
v 0.4 2.1 -0.8
v 0.5 2.1 -0.8
v 0.6 2.1 -0.8
v 0.7 2.1 -0.8
v 1.4 2.1 -0.8
v 1.5 2.1 -0.8
v 1.6 2.1 -0.8
v 1.7 2.1 -0.8
v 0.5 2.1 -0.9
v 0.6 2.1 -0.9
v 0.7 2.1 -0.9
v 1.4 2.1 -0.9
v 1.5 2.1 -0.9
v 1.6 2.1 -0.9
v 0 2.4 -0.3
v 0.1 2.4 -0.3
v 0.3 2.4 -0.3
v 0.4 2.4 -0.3
v 0.6 2.4 -0.3
v 1.4 2.4 -0.3
v 1.5 2.4 -0.3
v 0 2.4 -0.4
v 0.1 2.4 -0.4
v 0.3 2.4 -0.4
v 0.4 2.4 -0.4
v 0.6 2.4 -0.4
v 0 2.4 -0.5
v 0.1 2.4 -0.5
v 0.3 2.4 -0.5
v 0.4 2.4 -0.5
v 0.6 2.4 -0.5
v 0 2.4 -0.6
v 0.1 2.4 -0.6
v 0.3 2.4 -0.6
v 0.4 2.4 -0.6
v 0.6 2.4 -0.6
v 1.4 2.4 -0.6
v 1.5 2.4 -0.6
v 0.4 2.2 -0.1
v 0.5 2.2 -0.1
v 0.4 2.2 -0.8
v 0.5 2.2 -0.8
v 0.5 2.3 0
v 1.6 2.3 0
v 0.8 2.3 -0.1
v 1.3 2.3 -0.1
v 1.6 2.3 -0.1
v 1.7 2.3 -0.1
v 0.6 2.3 -0.2
v 0.8 2.3 -0.2
v 1.3 2.3 -0.2
v 1.4 2.3 -0.2
v 1.6 2.3 -0.2
v 1.7 2.3 -0.2
v 1.4 2.3 -0.3
v 1.6 2.3 -0.3
v 1.7 2.3 -0.3
v 1.6 2.3 -0.4
v 1.7 2.3 -0.4
v 1.6 2.3 -0.5
v 1.7 2.3 -0.5
v 1.4 2.3 -0.6
v 1.6 2.3 -0.6
v 1.7 2.3 -0.6
v 0.6 2.3 -0.7
v 0.8 2.3 -0.7
v 1.3 2.3 -0.7
v 1.4 2.3 -0.7
v 1.6 2.3 -0.7
v 1.7 2.3 -0.7
v 0.8 2.3 -0.8
v 1.3 2.3 -0.8
v 1.6 2.3 -0.8
v 1.7 2.3 -0.8
v 0.5 2.3 -0.9
v 1.6 2.3 -0.9
v 0.8 2.4 -0.1
v 1.3 2.4 -0.1
v 0.6 2.4 -0.2
v 0.7 2.4 -0.2
v 0.8 2.4 -0.2
v 1.3 2.4 -0.2
v 0.6 2.4 -0.3
v 0.7 2.4 -0.3
v 0.6 2.4 -0.4
v 0.7 2.4 -0.4
v 0.6 2.4 -0.5
v 0.7 2.4 -0.5
v 0.6 2.4 -0.6
v 0.7 2.4 -0.6
v 0.6 2.4 -0.7
v 0.7 2.4 -0.7
v 0.8 2.4 -0.7
v 1.3 2.4 -0.7
v 0.8 2.4 -0.8
v 1.3 2.4 -0.8
v 0.7 2.5 -0.2
v 0.8 2.5 -0.2
v 1.3 2.5 -0.2
v 1.4 2.5 -0.2
v 0 2.5 -0.3
v 0.1 2.5 -0.3
v 0.3 2.5 -0.3
v 0.4 2.5 -0.3
v 0.7 2.5 -0.3
v 0.8 2.5 -0.3
v 0.9 2.5 -0.3
v 1.2 2.5 -0.3
v 1.3 2.5 -0.3
v 1.4 2.5 -0.3
v 1.5 2.5 -0.3
v 0 2.5 -0.4
v 0.1 2.5 -0.4
v 0.3 2.5 -0.4
v 0.4 2.5 -0.4
v 0.7 2.5 -0.4
v 0 2.5 -0.5
v 0.1 2.5 -0.5
v 0.3 2.5 -0.5
v 0.4 2.5 -0.5
v 0.7 2.5 -0.5
v 0 2.5 -0.6
v 0.1 2.5 -0.6
v 0.3 2.5 -0.6
v 0.4 2.5 -0.6
v 0.7 2.5 -0.6
v 0.8 2.5 -0.6
v 0.9 2.5 -0.6
v 1.2 2.5 -0.6
v 1.3 2.5 -0.6
v 1.4 2.5 -0.6
v 1.5 2.5 -0.6
v 0.7 2.5 -0.7
v 0.8 2.5 -0.7
v 1.3 2.5 -0.7
v 1.4 2.5 -0.7
v 0.9 2.6 -0.3
v 1.2 2.6 -0.3
v 0.9 2.6 -0.6
v 1.2 2.6 -0.6

# faces
f 5/3/1 2/3/1 1/3/1
f 6/3/1 2/3/1 5/3/1
f 7/3/1 4/3/1 3/3/1
f 8/3/1 4/3/1 7/3/1
f 11/3/1 10/3/1 9/3/1
f 12/3/1 10/3/1 11/3/1
f 15/1/1 14/1/1 13/1/1
f 16/1/1 14/1/1 15/1/1
f 20/1/1 18/1/1 17/1/1
f 21/1/1 18/1/1 20/1/1
f 23/1/1 20/1/1 19/1/1
f 24/1/1 22/1/1 21/1/1
f 25/1/1 23/1/1 19/1/1
f 25/1/1 24/1/1 23/1/1
f 26/1/1 22/1/1 24/1/1
f 26/1/1 24/1/1 25/1/1
f 29/1/1 28/1/1 27/1/1
f 30/1/1 28/1/1 29/1/1
f 31/1/1 28/1/1 30/1/1
f 32/1/1 28/1/1 31/1/1
f 33/1/1 28/1/1 32/1/1
f 34/1/1 28/1/1 33/1/1
f 39/4/1 36/4/1 35/4/1
f 40/4/1 36/4/1 39/4/1
f 41/4/1 38/4/1 37/4/1
f 42/4/1 38/4/1 41/4/1
f 49/3/1 44/3/1 43/3/1
f 50/3/1 44/3/1 49/3/1
f 51/1/1 46/1/1 45/1/1
f 52/1/1 46/1/1 51/1/1
f 53/3/1 48/3/1 47/3/1
f 54/3/1 48/3/1 53/3/1
f 59/1/1 56/1/1 55/1/1
f 60/1/1 56/1/1 59/1/1
f 61/1/1 58/1/1 57/1/1
f 62/1/1 58/1/1 61/1/1
f 65/1/1 64/1/1 63/1/1
f 66/1/1 64/1/1 65/1/1
f 67/3/2 68/3/2 69/3/2
f 69/3/2 68/3/2 70/3/2
f 71/1/2 72/1/2 73/1/2
f 73/1/2 72/1/2 74/1/2
f 75/1/2 76/1/2 79/1/2
f 79/1/2 76/1/2 80/1/2
f 77/1/2 78/1/2 81/1/2
f 81/1/2 78/1/2 82/1/2
f 83/4/2 84/4/2 87/4/2
f 87/4/2 84/4/2 88/4/2
f 85/4/2 86/4/2 89/4/2
f 89/4/2 86/4/2 90/4/2
f 91/3/2 92/3/2 95/3/2
f 92/4/2 93/4/2 95/4/2
f 93/3/2 94/3/2 96/3/2
f 95/4/2 93/4/2 96/4/2
f 91/3/2 95/3/2 97/3/2
f 97/3/2 95/3/2 98/3/2
f 96/3/2 94/3/2 99/3/2
f 99/3/2 94/3/2 100/3/2
f 101/4/2 102/4/2 103/4/2
f 103/4/2 102/4/2 104/4/2
f 105/1/2 106/1/2 108/1/2
f 108/1/2 106/1/2 109/1/2
f 109/1/2 106/1/2 110/1/2
f 110/1/2 106/1/2 111/1/2
f 111/1/2 106/1/2 112/1/2
f 112/1/2 106/1/2 113/1/2
f 113/1/2 106/1/2 114/1/2
f 114/1/2 106/1/2 115/1/2
f 107/1/2 108/1/2 117/1/2
f 117/1/2 108/1/2 118/1/2
f 115/1/2 116/1/2 119/1/2
f 119/1/2 116/1/2 120/1/2
f 121/4/2 122/4/2 129/4/2
f 122/1/2 123/1/2 130/1/2
f 129/4/2 122/4/2 130/4/2
f 123/4/2 124/4/2 131/4/2
f 130/1/2 123/1/2 131/1/2
f 124/1/2 125/1/2 132/1/2
f 131/4/2 124/4/2 132/4/2
f 125/4/2 126/4/2 133/4/2
f 132/1/2 125/1/2 133/1/2
f 126/1/2 127/1/2 134/1/2
f 133/4/2 126/4/2 134/4/2
f 127/4/2 128/4/2 135/4/2
f 134/1/2 127/1/2 135/1/2
f 135/4/2 128/4/2 136/4/2
f 139/1/3 138/1/3 137/1/3
f 140/1/3 138/1/3 139/1/3
f 142/4/3 140/4/3 139/4/3
f 143/4/3 142/4/3 141/4/3
f 144/4/3 140/4/3 142/4/3
f 144/4/3 142/4/3 143/4/3
f 145/4/3 140/4/3 144/4/3
f 146/1/3 138/1/3 140/1/3
f 146/4/3 140/4/3 145/4/3
f 147/1/3 146/1/3 145/1/3
f 148/1/3 138/1/3 146/1/3
f 148/1/3 146/1/3 147/1/3
f 152/1/3 150/1/3 149/1/3
f 153/1/3 150/1/3 152/1/3
f 154/1/3 152/1/3 151/1/3
f 155/1/3 154/1/3 151/1/3
f 156/1/3 154/1/3 155/1/3
f 159/1/3 158/1/3 157/1/3
f 160/1/3 158/1/3 159/1/3
f 163/1/3 162/1/3 161/1/3
f 164/1/3 163/1/3 161/1/3
f 165/1/3 163/1/3 164/1/3
f 167/4/3 166/4/3 165/4/3
f 168/4/3 166/4/3 167/4/3
f 171/1/3 170/1/3 169/1/3
f 173/1/3 171/1/3 169/1/3
f 174/3/3 172/3/3 171/3/3
f 174/1/3 171/1/3 173/1/3
f 175/3/3 172/3/3 174/3/3
f 177/1/3 175/1/3 174/1/3
f 178/1/3 175/1/3 177/1/3
f 179/3/3 177/3/3 176/3/3
f 179/3/3 178/3/3 177/3/3
f 180/3/3 178/3/3 179/3/3
f 183/3/3 182/3/3 181/3/3
f 184/3/3 182/3/3 183/3/3
f 185/1/3 184/1/3 183/1/3
f 186/1/3 184/1/3 185/1/3
f 187/3/3 186/3/3 185/3/3
f 188/3/3 186/3/3 187/3/3
f 189/1/3 188/1/3 187/1/3
f 190/1/3 188/1/3 189/1/3
f 191/1/3 188/1/3 190/1/3
f 194/1/3 193/1/3 192/1/3
f 195/1/3 193/1/3 194/1/3
f 198/4/3 197/4/3 196/4/3
f 199/4/3 197/4/3 198/4/3
f 202/3/3 201/3/3 200/3/3
f 203/3/3 201/3/3 202/3/3
f 204/1/3 203/1/3 202/1/3
f 205/1/3 203/1/3 204/1/3
f 208/1/3 207/1/3 206/1/3
f 209/1/3 207/1/3 208/1/3
f 210/1/3 207/1/3 209/1/3
f 211/3/4 212/3/4 213/3/4
f 213/3/4 212/3/4 214/3/4
f 213/1/4 214/1/4 215/1/4
f 215/1/4 214/1/4 216/1/4
f 217/1/4 218/1/4 219/1/4
f 219/1/4 218/1/4 220/1/4
f 220/1/4 218/1/4 221/1/4
f 222/3/4 223/3/4 224/3/4
f 224/3/4 223/3/4 225/3/4
f 224/1/4 225/1/4 226/1/4
f 226/1/4 225/1/4 227/1/4
f 226/3/4 227/3/4 228/3/4
f 228/3/4 227/3/4 229/3/4
f 228/1/4 229/1/4 230/1/4
f 230/1/4 229/1/4 231/1/4
f 231/1/4 229/1/4 232/1/4
f 233/1/4 234/1/4 235/1/4
f 235/1/4 234/1/4 236/1/4
f 237/4/4 238/4/4 239/4/4
f 239/4/4 238/4/4 240/4/4
f 241/1/4 242/1/4 243/1/4
f 241/1/4 243/1/4 245/1/4
f 243/3/4 244/3/4 246/3/4
f 245/1/4 243/1/4 246/1/4
f 246/3/4 244/3/4 247/3/4
f 246/1/4 247/1/4 249/1/4
f 249/1/4 247/1/4 250/1/4
f 248/3/4 249/3/4 251/3/4
f 249/3/4 250/3/4 251/3/4
f 251/3/4 250/3/4 252/3/4
f 253/1/4 254/1/4 256/1/4
f 256/1/4 254/1/4 257/1/4
f 255/1/4 256/1/4 258/1/4
f 255/1/4 258/1/4 259/1/4
f 259/1/4 258/1/4 260/1/4
f 261/1/4 262/1/4 263/1/4
f 263/1/4 262/1/4 264/1/4
f 265/1/4 266/1/4 267/1/4
f 265/1/4 267/1/4 268/1/4
f 268/1/4 267/1/4 269/1/4
f 269/4/4 270/4/4 271/4/4
f 271/4/4 270/4/4 272/4/4
f 273/1/4 274/1/4 275/1/4
f 275/1/4 274/1/4 276/1/4
f 275/4/4 276/4/4 278/4/4
f 277/4/4 278/4/4 279/4/4
f 278/4/4 276/4/4 280/4/4
f 279/4/4 278/4/4 280/4/4
f 280/4/4 276/4/4 281/4/4
f 276/1/4 274/1/4 282/1/4
f 281/4/4 276/4/4 282/4/4
f 281/1/4 282/1/4 283/1/4
f 282/1/4 274/1/4 284/1/4
f 283/1/4 282/1/4 284/1/4
f 288/4/5 286/4/5 285/4/5
f 289/4/5 286/4/5 288/4/5
f 291/1/5 288/1/5 287/1/5
f 291/1/5 290/1/5 289/1/5
f 291/1/5 289/1/5 288/1/5
f 292/1/5 290/1/5 291/1/5
f 293/1/5 290/1/5 292/1/5
f 294/1/5 290/1/5 293/1/5
f 295/4/5 293/4/5 292/4/5
f 296/4/5 293/4/5 295/4/5
f 304/1/5 298/1/5 297/1/5
f 305/4/5 299/4/5 298/4/5
f 305/1/5 298/1/5 304/1/5
f 306/4/5 299/4/5 305/4/5
f 307/4/5 301/4/5 300/4/5
f 308/1/5 302/1/5 301/1/5
f 308/4/5 301/4/5 307/4/5
f 309/1/5 302/1/5 308/1/5
f 311/4/5 310/4/5 309/4/5
f 312/4/5 310/4/5 311/4/5
f 313/1/5 312/1/5 311/1/5
f 314/1/5 312/1/5 313/1/5
f 315/4/5 314/4/5 313/4/5
f 316/4/5 314/4/5 315/4/5
f 317/1/5 316/1/5 315/1/5
f 318/1/5 316/1/5 317/1/5
f 319/4/5 318/4/5 317/4/5
f 320/4/5 318/4/5 319/4/5
f 321/1/5 320/1/5 319/1/5
f 322/1/5 320/1/5 321/1/5
f 323/1/5 304/1/5 303/1/5
f 324/1/5 304/1/5 323/1/5
f 329/4/5 322/4/5 321/4/5
f 330/4/5 322/4/5 329/4/5
f 331/1/5 325/1/5 324/1/5
f 332/4/5 326/4/5 325/4/5
f 332/1/5 325/1/5 331/1/5
f 333/4/5 326/4/5 332/4/5
f 334/4/5 328/4/5 327/4/5
f 335/1/5 329/1/5 328/1/5
f 335/4/5 328/4/5 334/4/5
f 336/1/5 329/1/5 335/1/5
f 344/3/5 338/3/5 337/3/5
f 345/1/5 339/1/5 338/1/5
f 345/3/5 338/3/5 344/3/5
f 346/3/5 340/3/5 339/3/5
f 346/1/5 339/1/5 345/1/5
f 347/1/5 341/1/5 340/1/5
f 347/3/5 340/3/5 346/3/5
f 348/1/5 341/1/5 347/1/5
f 351/3/5 347/3/5 346/3/5
f 352/3/5 347/3/5 351/3/5
f 354/3/5 350/3/5 349/3/5
f 355/1/5 351/1/5 350/1/5
f 355/3/5 350/3/5 354/3/5
f 356/3/5 352/3/5 351/3/5
f 356/1/5 351/1/5 355/1/5
f 357/1/5 353/1/5 352/1/5
f 357/3/5 352/3/5 356/3/5
f 358/1/5 353/1/5 357/1/5
f 359/4/5 343/4/5 342/4/5
f 360/4/5 343/4/5 359/4/5
f 361/1/6 362/1/6 363/1/6
f 363/1/6 362/1/6 364/1/6
f 365/1/6 366/1/6 367/1/6
f 367/1/6 366/1/6 368/1/6
f 368/1/6 366/1/6 369/1/6
f 365/1/6 367/1/6 371/1/6
f 371/1/6 367/1/6 372/1/6
f 368/1/6 369/1/6 373/1/6
f 373/1/6 369/1/6 374/1/6
f 369/4/6 370/4/6 375/4/6
f 374/1/6 369/1/6 375/1/6
f 375/4/6 370/4/6 376/4/6
f 375/1/6 376/1/6 377/1/6
f 374/1/6 375/1/6 377/1/6
f 377/1/6 376/1/6 378/1/6
f 378/1/6 376/1/6 379/1/6
f 377/1/6 378/1/6 380/1/6
f 378/4/6 379/4/6 380/4/6
f 380/4/6 379/4/6 381/4/6
f 377/1/6 380/1/6 382/1/6
f 380/1/6 381/1/6 382/1/6
f 382/1/6 381/1/6 383/1/6
f 377/1/6 382/1/6 384/1/6
f 382/4/6 383/4/6 385/4/6
f 384/1/6 382/1/6 385/1/6
f 385/4/6 383/4/6 386/4/6
f 365/1/6 371/1/6 387/1/6
f 384/1/6 385/1/6 390/1/6
f 385/1/6 386/1/6 390/1/6
f 390/1/6 386/1/6 391/1/6
f 391/1/6 386/1/6 392/1/6
f 387/1/6 388/1/6 393/1/6
f 389/1/6 390/1/6 394/1/6
f 390/1/6 391/1/6 394/1/6
f 391/4/6 392/4/6 395/4/6
f 394/1/6 391/1/6 395/1/6
f 395/4/6 392/4/6 396/4/6
f 365/1/6 387/1/6 397/1/6
f 387/1/6 393/1/6 397/1/6
f 394/1/6 395/1/6 397/1/6
f 393/1/6 394/1/6 397/1/6
f 397/1/6 395/1/6 398/1/6
f 399/1/6 400/1/6 403/1/6
f 403/1/6 400/1/6 404/1/6
f 401/1/6 402/1/6 405/1/6
f 405/1/6 402/1/6 406/1/6
f 407/1/6 408/1/6 409/1/6
f 409/1/6 408/1/6 410/1/6
f 411/1/6 412/1/6 413/1/6
f 413/1/6 412/1/6 414/1/6
f 415/1/6 416/1/6 417/1/6
f 417/1/6 416/1/6 418/1/6
f 419/3/6 420/3/6 427/3/6
f 420/1/6 421/1/6 428/1/6
f 427/3/6 420/3/6 428/3/6
f 428/1/6 421/1/6 429/1/6
f 429/1/6 421/1/6 430/1/6
f 421/3/6 422/3/6 431/3/6
f 430/1/6 421/1/6 431/1/6
f 431/3/6 422/3/6 432/3/6
f 423/3/6 424/3/6 434/3/6
f 424/1/6 425/1/6 435/1/6
f 434/3/6 424/3/6 435/3/6
f 425/3/6 426/3/6 436/3/6
f 435/1/6 425/1/6 436/1/6
f 426/1/6 427/1/6 437/1/6
f 436/3/6 426/3/6 437/3/6
f 427/1/6 428/1/6 437/1/6
f 428/1/6 429/1/6 437/1/6
f 437/1/6 429/1/6 438/1/6
f 436/3/6 437/3/6 441/3/6
f 441/3/6 437/3/6 442/3/6
f 438/1/6 429/1/6 443/1/6
f 439/3/6 440/3/6 444/3/6
f 440/1/6 441/1/6 445/1/6
f 444/3/6 440/3/6 445/3/6
f 441/3/6 442/3/6 446/3/6
f 445/1/6 441/1/6 446/1/6
f 442/1/6 443/1/6 447/1/6
f 446/3/6 442/3/6 447/3/6
f 443/1/6 429/1/6 448/1/6
f 447/1/6 443/1/6 448/1/6
f 448/1/6 429/1/6 449/1/6
f 449/1/6 429/1/6 450/1/6
f 431/1/6 432/1/6 451/1/6
f 430/1/6 431/1/6 451/1/6
f 451/1/6 432/1/6 452/1/6
f 432/4/6 433/4/6 453/4/6
f 452/1/6 432/1/6 453/1/6
f 453/4/6 433/4/6 454/4/6
f 448/3/6 449/3/6 455/3/6
f 451/1/6 452/1/6 456/1/6
f 455/3/6 449/3/6 456/3/6
f 449/1/6 450/1/6 456/1/6
f 450/1/6 451/1/6 456/1/6
f 452/3/6 453/3/6 457/3/6
f 456/1/6 452/1/6 457/1/6
f 457/3/6 453/3/6 458/3/6
f 459/1/6 460/1/6 461/1/6
f 461/1/6 460/1/6 462/1/6
