# MagicaVoxel @ Ephtracy

# group
o 

# material
mtllib plane3.mtl
usemtl palette

# normals
vn -1 0 0
vn 1 0 0
vn 0 0 1
vn 0 0 -1
vn 0 -1 0
vn 0 1 0

# texcoords
vt 0.0214844 0.5
vt 0.0488281 0.5
vt 0.0566406 0.5
vt 0.0605469 0.5
vt 0.0878906 0.5

# verts
v -2 0 2
v -2 0 -2
v -2 0.1 2
v -2 0.1 -2
v -1.7 0.1 0.2
v -1.7 0.1 0.0999999
v -1.7 0.2 0.2
v -1.7 0.2 0.0999999
v -0.6 0.1 -1.4
v -0.6 0.1 -1.5
v -0.6 0.2 -1.4
v -0.6 0.2 -1.5
v -0.3 0.1 1.4
v -0.3 0.1 1.3
v -0.3 0.2 1.4
v -0.3 0.2 1.3
v -1.6 0.1 0.2
v -1.6 0.1 0.0999999
v -1.6 0.2 0.2
v -1.6 0.2 0.0999999
v -0.5 0.1 -1.4
v -0.5 0.1 -1.5
v -0.5 0.2 -1.4
v -0.5 0.2 -1.5
v -0.2 0.1 1.4
v -0.2 0.1 1.3
v -0.2 0.2 1.4
v -0.2 0.2 1.3
v 2 0 2
v 2 0 -2
v 2 0.1 2
v 2 0.1 -2
v -2 0 2
v -2 0.1 2
v 2 0 2
v 2 0.1 2
v -0.3 0.1 1.4
v -0.3 0.2 1.4
v -0.2 0.1 1.4
v -0.2 0.2 1.4
v -1.7 0.1 0.2
v -1.7 0.2 0.2
v -1.6 0.1 0.2
v -1.6 0.2 0.2
v -0.6 0.1 -1.4
v -0.6 0.2 -1.4
v -0.5 0.1 -1.4
v -0.5 0.2 -1.4
v -0.3 0.1 1.3
v -0.3 0.2 1.3
v -0.2 0.1 1.3
v -0.2 0.2 1.3
v -1.7 0.1 0.0999999
v -1.7 0.2 0.0999999
v -1.6 0.1 0.0999999
v -1.6 0.2 0.0999999
v -0.6 0.1 -1.5
v -0.6 0.2 -1.5
v -0.5 0.1 -1.5
v -0.5 0.2 -1.5
v -2 0 -2
v -2 0.1 -2
v 2 0 -2
v 2 0.1 -2
v -2 0 2
v 2 0 2
v 1.5 0 1.8
v 1.6 0 1.8
v 1.5 0 1.7
v 1.6 0 1.7
v -1.9 0 1.4
v -1.8 0 1.4
v -1.9 0 1.3
v -1.8 0 1.3
v 1.4 0 0.8
v 1.5 0 0.8
v 1.4 0 0.7
v 1.5 0 0.7
v -0.4 0 -0.5
v -0.3 0 -0.5
v -0.4 0 -0.6
v -0.3 0 -0.6
v -1.3 0 -1.2
v -1.2 0 -1.2
v 1.6 0 -1.2
v 1.7 0 -1.2
v -1.3 0 -1.3
v -1.2 0 -1.3
v 1.6 0 -1.3
v 1.7 0 -1.3
v -2 0 -2
v 2 0 -2
v -2 0.1 2
v 2 0.1 2
v 1.5 0.1 1.8
v 1.6 0.1 1.8
v 1.5 0.1 1.7
v 1.6 0.1 1.7
v -1.9 0.1 1.4
v -1.8 0.1 1.4
v -0.3 0.1 1.4
v -0.2 0.1 1.4
v -1.9 0.1 1.3
v -1.8 0.1 1.3
v -0.3 0.1 1.3
v -0.2 0.1 1.3
v 1.4 0.1 0.8
v 1.5 0.1 0.8
v 1.4 0.1 0.7
v 1.5 0.1 0.7
v -1.7 0.1 0.2
v -1.6 0.1 0.2
v -1.7 0.1 0.0999999
v -1.6 0.1 0.0999999
v -0.4 0.1 -0.5
v -0.3 0.1 -0.5
v -0.4 0.1 -0.6
v -0.3 0.1 -0.6
v -1.3 0.1 -1.2
v -1.2 0.1 -1.2
v 1.6 0.1 -1.2
v 1.7 0.1 -1.2
v -1.3 0.1 -1.3
v -1.2 0.1 -1.3
v 1.6 0.1 -1.3
v 1.7 0.1 -1.3
v -0.6 0.1 -1.4
v -0.5 0.1 -1.4
v -0.6 0.1 -1.5
v -0.5 0.1 -1.5
v -2 0.1 -2
v 2 0.1 -2
v -0.3 0.2 1.4
v -0.2 0.2 1.4
v -0.3 0.2 1.3
v -0.2 0.2 1.3
v -1.7 0.2 0.2
v -1.6 0.2 0.2
v -1.7 0.2 0.0999999
v -1.6 0.2 0.0999999
v -0.6 0.2 -1.4
v -0.5 0.2 -1.4
v -0.6 0.2 -1.5
v -0.5 0.2 -1.5

# faces
f 3/2/1 2/2/1 1/2/1
f 4/2/1 2/2/1 3/2/1
f 7/2/1 6/2/1 5/2/1
f 8/2/1 6/2/1 7/2/1
f 11/4/1 10/4/1 9/4/1
f 12/4/1 10/4/1 11/4/1
f 15/2/1 14/2/1 13/2/1
f 16/2/1 14/2/1 15/2/1
f 17/2/2 18/2/2 19/2/2
f 19/2/2 18/2/2 20/2/2
f 21/4/2 22/4/2 23/4/2
f 23/4/2 22/4/2 24/4/2
f 25/2/2 26/2/2 27/2/2
f 27/2/2 26/2/2 28/2/2
f 29/2/2 30/2/2 31/2/2
f 31/2/2 30/2/2 32/2/2
f 35/2/3 34/2/3 33/2/3
f 36/2/3 34/2/3 35/2/3
f 39/2/3 38/2/3 37/2/3
f 40/2/3 38/2/3 39/2/3
f 43/2/3 42/2/3 41/2/3
f 44/2/3 42/2/3 43/2/3
f 47/4/3 46/4/3 45/4/3
f 48/4/3 46/4/3 47/4/3
f 49/2/4 50/2/4 51/2/4
f 51/2/4 50/2/4 52/2/4
f 53/2/4 54/2/4 55/2/4
f 55/2/4 54/2/4 56/2/4
f 57/4/4 58/4/4 59/4/4
f 59/4/4 58/4/4 60/4/4
f 61/2/4 62/2/4 63/2/4
f 63/2/4 62/2/4 64/2/4
f 67/2/5 66/2/5 65/2/5
f 68/2/5 66/2/5 67/2/5
f 69/2/5 67/2/5 65/2/5
f 69/5/5 68/5/5 67/5/5
f 70/2/5 66/2/5 68/2/5
f 70/5/5 68/5/5 69/5/5
f 71/2/5 69/2/5 65/2/5
f 71/2/5 70/2/5 69/2/5
f 72/2/5 70/2/5 71/2/5
f 73/2/5 71/2/5 65/2/5
f 73/5/5 72/5/5 71/5/5
f 74/2/5 70/2/5 72/2/5
f 74/5/5 72/5/5 73/5/5
f 75/2/5 74/2/5 73/2/5
f 75/2/5 70/2/5 74/2/5
f 76/2/5 70/2/5 75/2/5
f 77/2/5 75/2/5 73/2/5
f 77/3/5 76/3/5 75/3/5
f 78/2/5 70/2/5 76/2/5
f 78/3/5 76/3/5 77/3/5
f 79/2/5 77/2/5 73/2/5
f 79/2/5 78/2/5 77/2/5
f 80/2/5 78/2/5 79/2/5
f 81/2/5 79/2/5 73/2/5
f 81/1/5 80/1/5 79/1/5
f 82/2/5 78/2/5 80/2/5
f 82/1/5 80/1/5 81/1/5
f 83/2/5 81/2/5 73/2/5
f 83/2/5 82/2/5 81/2/5
f 84/2/5 82/2/5 83/2/5
f 85/2/5 66/2/5 70/2/5
f 85/2/5 82/2/5 84/2/5
f 85/2/5 70/2/5 78/2/5
f 85/2/5 78/2/5 82/2/5
f 86/2/5 66/2/5 85/2/5
f 87/5/5 84/5/5 83/5/5
f 87/2/5 83/2/5 73/2/5
f 88/2/5 85/2/5 84/2/5
f 88/5/5 84/5/5 87/5/5
f 89/5/5 86/5/5 85/5/5
f 89/2/5 85/2/5 88/2/5
f 90/2/5 66/2/5 86/2/5
f 90/5/5 86/5/5 89/5/5
f 91/2/5 89/2/5 88/2/5
f 91/2/5 73/2/5 65/2/5
f 91/2/5 90/2/5 89/2/5
f 91/2/5 87/2/5 73/2/5
f 91/2/5 88/2/5 87/2/5
f 92/2/5 66/2/5 90/2/5
f 92/2/5 90/2/5 91/2/5
f 93/2/6 94/2/6 95/2/6
f 95/2/6 94/2/6 96/2/6
f 93/2/6 95/2/6 97/2/6
f 95/5/6 96/5/6 97/5/6
f 96/2/6 94/2/6 98/2/6
f 97/5/6 96/5/6 98/5/6
f 93/2/6 97/2/6 99/2/6
f 97/2/6 98/2/6 99/2/6
f 99/2/6 98/2/6 100/2/6
f 100/2/6 98/2/6 101/2/6
f 101/2/6 98/2/6 102/2/6
f 93/2/6 99/2/6 103/2/6
f 99/5/6 100/5/6 103/5/6
f 100/2/6 101/2/6 104/2/6
f 103/5/6 100/5/6 104/5/6
f 104/2/6 101/2/6 105/2/6
f 102/2/6 98/2/6 106/2/6
f 104/2/6 105/2/6 107/2/6
f 105/2/6 106/2/6 107/2/6
f 106/2/6 98/2/6 107/2/6
f 103/2/6 104/2/6 107/2/6
f 107/2/6 98/2/6 108/2/6
f 103/2/6 107/2/6 109/2/6
f 107/3/6 108/3/6 109/3/6
f 108/2/6 98/2/6 110/2/6
f 109/3/6 108/3/6 110/3/6
f 103/2/6 109/2/6 111/2/6
f 109/2/6 110/2/6 111/2/6
f 111/2/6 110/2/6 112/2/6
f 103/2/6 111/2/6 113/2/6
f 112/2/6 110/2/6 114/2/6
f 114/2/6 110/2/6 115/2/6
f 113/2/6 114/2/6 115/2/6
f 115/2/6 110/2/6 116/2/6
f 113/2/6 115/2/6 117/2/6
f 115/1/6 116/1/6 117/1/6
f 116/2/6 110/2/6 118/2/6
f 117/1/6 116/1/6 118/1/6
f 113/2/6 117/2/6 119/2/6
f 117/2/6 118/2/6 119/2/6
f 119/2/6 118/2/6 120/2/6
f 98/2/6 94/2/6 121/2/6
f 120/2/6 118/2/6 121/2/6
f 110/2/6 98/2/6 121/2/6
f 118/2/6 110/2/6 121/2/6
f 121/2/6 94/2/6 122/2/6
f 119/5/6 120/5/6 123/5/6
f 113/2/6 119/2/6 123/2/6
f 120/2/6 121/2/6 124/2/6
f 123/5/6 120/5/6 124/5/6
f 121/5/6 122/5/6 125/5/6
f 124/2/6 121/2/6 125/2/6
f 122/2/6 94/2/6 126/2/6
f 125/5/6 122/5/6 126/5/6
f 124/2/6 125/2/6 127/2/6
f 123/2/6 124/2/6 127/2/6
f 125/2/6 126/2/6 127/2/6
f 127/2/6 126/2/6 128/2/6
f 123/2/6 127/2/6 129/2/6
f 128/2/6 126/2/6 130/2/6
f 93/2/6 103/2/6 131/2/6
f 129/2/6 130/2/6 131/2/6
f 113/2/6 123/2/6 131/2/6
f 103/2/6 113/2/6 131/2/6
f 123/2/6 129/2/6 131/2/6
f 126/2/6 94/2/6 132/2/6
f 131/2/6 130/2/6 132/2/6
f 130/2/6 126/2/6 132/2/6
f 133/2/6 134/2/6 135/2/6
f 135/2/6 134/2/6 136/2/6
f 137/2/6 138/2/6 139/2/6
f 139/2/6 138/2/6 140/2/6
f 141/4/6 142/4/6 143/4/6
f 143/4/6 142/4/6 144/4/6
