# MagicaVoxel @ Ephtracy

# group
o 

# material
mtllib plane2.mtl
usemtl palette

# normals
vn -1 0 0
vn 1 0 0
vn 0 0 1
vn 0 0 -1
vn 0 -1 0
vn 0 1 0

# texcoords
vt 0.0488281 0.5
vt 0.0527344 0.5
vt 0.0917969 0.5
vt 0.103516 0.5

# verts
v -2 0 2
v -2 0 -2
v -2 0.1 2
v -2 0.1 -2
v -1.3 0.1 0.8
v -1.3 0.1 0.7
v -1.3 0.1 -1.2
v -1.3 0.1 -1.3
v -1.3 0.2 0.8
v -1.3 0.2 0.7
v -1.3 0.2 -1.2
v -1.3 0.2 -1.3
v -0.6 0.1 1.4
v -0.6 0.1 1.3
v -0.6 0.2 1.4
v -0.6 0.2 1.3
v -0.4 0.2 -0.4
v -0.4 0.2 -0.5
v -0.4 0.3 -0.4
v -0.4 0.3 -0.5
v -0.3 0.1 -0.4
v -0.3 0.1 -0.5
v -0.3 0.2 -0.3
v -0.3 0.2 -0.4
v -0.3 0.2 -0.5
v -0.3 0.2 -0.6
v -0.3 0.3 -0.3
v -0.3 0.3 -0.4
v -0.3 0.3 -0.5
v -0.3 0.3 -0.6
v 0.7 0.1 -1.3
v 0.7 0.1 -1.4
v 0.7 0.2 -1.3
v 0.7 0.2 -1.4
v 0.8 0.2 0.4
v 0.8 0.2 0.3
v 0.8 0.3 0.4
v 0.8 0.3 0.3
v 0.9 0.1 0.4
v 0.9 0.1 0.3
v 0.9 0.2 0.5
v 0.9 0.2 0.4
v 0.9 0.2 0.3
v 0.9 0.2 0.2
v 0.9 0.3 0.5
v 0.9 0.3 0.4
v 0.9 0.3 0.3
v 0.9 0.3 0.2
v 1.3 0.1 1.5
v 1.3 0.1 1.4
v 1.3 0.2 1.5
v 1.3 0.2 1.4
v 1.4 0.1 -0.6
v 1.4 0.1 -0.7
v 1.4 0.2 -0.6
v 1.4 0.2 -0.7
v -1.2 0.1 0.8
v -1.2 0.1 0.7
v -1.2 0.1 -1.2
v -1.2 0.1 -1.3
v -1.2 0.2 0.8
v -1.2 0.2 0.7
v -1.2 0.2 -1.2
v -1.2 0.2 -1.3
v -0.5 0.1 1.4
v -0.5 0.1 1.3
v -0.5 0.2 1.4
v -0.5 0.2 1.3
v -0.2 0.1 -0.4
v -0.2 0.1 -0.5
v -0.2 0.2 -0.3
v -0.2 0.2 -0.4
v -0.2 0.2 -0.5
v -0.2 0.2 -0.6
v -0.2 0.3 -0.3
v -0.2 0.3 -0.4
v -0.2 0.3 -0.5
v -0.2 0.3 -0.6
v -0.0999999 0.2 -0.4
v -0.0999999 0.2 -0.5
v -0.0999999 0.3 -0.4
v -0.0999999 0.3 -0.5
v 0.9 0.1 -1.3
v 0.9 0.1 -1.4
v 0.9 0.2 -1.3
v 0.9 0.2 -1.4
v 1 0.1 0.4
v 1 0.1 0.3
v 1 0.2 0.5
v 1 0.2 0.4
v 1 0.2 0.3
v 1 0.2 0.2
v 1 0.3 0.5
v 1 0.3 0.4
v 1 0.3 0.3
v 1 0.3 0.2
v 1.1 0.2 0.4
v 1.1 0.2 0.3
v 1.1 0.3 0.4
v 1.1 0.3 0.3
v 1.4 0.1 1.5
v 1.4 0.1 1.4
v 1.4 0.2 1.5
v 1.4 0.2 1.4
v 1.5 0.1 -0.6
v 1.5 0.1 -0.7
v 1.5 0.2 -0.6
v 1.5 0.2 -0.7
v 2 0 2
v 2 0 -2
v 2 0.1 2
v 2 0.1 -2
v -2 0 2
v -2 0.1 2
v 2 0 2
v 2 0.1 2
v 1.3 0.1 1.5
v 1.3 0.2 1.5
v 1.4 0.1 1.5
v 1.4 0.2 1.5
v -0.6 0.1 1.4
v -0.6 0.2 1.4
v -0.5 0.1 1.4
v -0.5 0.2 1.4
v -1.3 0.1 0.8
v -1.3 0.2 0.8
v -1.2 0.1 0.8
v -1.2 0.2 0.8
v 0.9 0.2 0.5
v 0.9 0.3 0.5
v 1 0.2 0.5
v 1 0.3 0.5
v 0.8 0.2 0.4
v 0.8 0.3 0.4
v 0.9 0.1 0.4
v 0.9 0.2 0.4
v 0.9 0.3 0.4
v 1 0.1 0.4
v 1 0.2 0.4
v 1 0.3 0.4
v 1.1 0.2 0.4
v 1.1 0.3 0.4
v -0.3 0.2 -0.3
v -0.3 0.3 -0.3
v -0.2 0.2 -0.3
v -0.2 0.3 -0.3
v -0.4 0.2 -0.4
v -0.4 0.3 -0.4
v -0.3 0.1 -0.4
v -0.3 0.2 -0.4
v -0.3 0.3 -0.4
v -0.2 0.1 -0.4
v -0.2 0.2 -0.4
v -0.2 0.3 -0.4
v -0.0999999 0.2 -0.4
v -0.0999999 0.3 -0.4
v 1.4 0.1 -0.6
v 1.4 0.2 -0.6
v 1.5 0.1 -0.6
v 1.5 0.2 -0.6
v -1.3 0.1 -1.2
v -1.3 0.2 -1.2
v -1.2 0.1 -1.2
v -1.2 0.2 -1.2
v 0.7 0.1 -1.3
v 0.7 0.2 -1.3
v 0.9 0.1 -1.3
v 0.9 0.2 -1.3
v 1.3 0.1 1.4
v 1.3 0.2 1.4
v 1.4 0.1 1.4
v 1.4 0.2 1.4
v -0.6 0.1 1.3
v -0.6 0.2 1.3
v -0.5 0.1 1.3
v -0.5 0.2 1.3
v -1.3 0.1 0.7
v -1.3 0.2 0.7
v -1.2 0.1 0.7
v -1.2 0.2 0.7
v 0.8 0.2 0.3
v 0.8 0.3 0.3
v 0.9 0.1 0.3
v 0.9 0.2 0.3
v 0.9 0.3 0.3
v 1 0.1 0.3
v 1 0.2 0.3
v 1 0.3 0.3
v 1.1 0.2 0.3
v 1.1 0.3 0.3
v 0.9 0.2 0.2
v 0.9 0.3 0.2
v 1 0.2 0.2
v 1 0.3 0.2
v -0.4 0.2 -0.5
v -0.4 0.3 -0.5
v -0.3 0.1 -0.5
v -0.3 0.2 -0.5
v -0.3 0.3 -0.5
v -0.2 0.1 -0.5
v -0.2 0.2 -0.5
v -0.2 0.3 -0.5
v -0.0999999 0.2 -0.5
v -0.0999999 0.3 -0.5
v -0.3 0.2 -0.6
v -0.3 0.3 -0.6
v -0.2 0.2 -0.6
v -0.2 0.3 -0.6
v 1.4 0.1 -0.7
v 1.4 0.2 -0.7
v 1.5 0.1 -0.7
v 1.5 0.2 -0.7
v -1.3 0.1 -1.3
v -1.3 0.2 -1.3
v -1.2 0.1 -1.3
v -1.2 0.2 -1.3
v 0.7 0.1 -1.4
v 0.7 0.2 -1.4
v 0.9 0.1 -1.4
v 0.9 0.2 -1.4
v -2 0 -2
v -2 0.1 -2
v 2 0 -2
v 2 0.1 -2
v -2 0 2
v 2 0 2
v -2 0 -2
v 2 0 -2
v 0.9 0.2 0.5
v 1 0.2 0.5
v 0.8 0.2 0.4
v 0.9 0.2 0.4
v 1 0.2 0.4
v 1.1 0.2 0.4
v 0.8 0.2 0.3
v 0.9 0.2 0.3
v 1 0.2 0.3
v 1.1 0.2 0.3
v 0.9 0.2 0.2
v 1 0.2 0.2
v -0.3 0.2 -0.3
v -0.2 0.2 -0.3
v -0.4 0.2 -0.4
v -0.3 0.2 -0.4
v -0.2 0.2 -0.4
v -0.0999999 0.2 -0.4
v -0.4 0.2 -0.5
v -0.3 0.2 -0.5
v -0.2 0.2 -0.5
v -0.0999999 0.2 -0.5
v -0.3 0.2 -0.6
v -0.2 0.2 -0.6
v -2 0.1 2
v 2 0.1 2
v 1.3 0.1 1.5
v 1.4 0.1 1.5
v -0.6 0.1 1.4
v -0.5 0.1 1.4
v 1.3 0.1 1.4
v 1.4 0.1 1.4
v -0.6 0.1 1.3
v -0.5 0.1 1.3
v -1.3 0.1 0.8
v -1.2 0.1 0.8
v -1.3 0.1 0.7
v -1.2 0.1 0.7
v 0.9 0.1 0.4
v 1 0.1 0.4
v 0.9 0.1 0.3
v 1 0.1 0.3
v -0.3 0.1 -0.4
v -0.2 0.1 -0.4
v -0.3 0.1 -0.5
v -0.2 0.1 -0.5
v 1.4 0.1 -0.6
v 1.5 0.1 -0.6
v 1.4 0.1 -0.7
v 1.5 0.1 -0.7
v -1.3 0.1 -1.2
v -1.2 0.1 -1.2
v -1.3 0.1 -1.3
v -1.2 0.1 -1.3
v 0.7 0.1 -1.3
v 0.9 0.1 -1.3
v 0.7 0.1 -1.4
v 0.9 0.1 -1.4
v -2 0.1 -2
v 2 0.1 -2
v 1.3 0.2 1.5
v 1.4 0.2 1.5
v -0.6 0.2 1.4
v -0.5 0.2 1.4
v 1.3 0.2 1.4
v 1.4 0.2 1.4
v -0.6 0.2 1.3
v -0.5 0.2 1.3
v -1.3 0.2 0.8
v -1.2 0.2 0.8
v -1.3 0.2 0.7
v -1.2 0.2 0.7
v 1.4 0.2 -0.6
v 1.5 0.2 -0.6
v 1.4 0.2 -0.7
v 1.5 0.2 -0.7
v -1.3 0.2 -1.2
v -1.2 0.2 -1.2
v -1.3 0.2 -1.3
v -1.2 0.2 -1.3
v 0.7 0.2 -1.3
v 0.9 0.2 -1.3
v 0.7 0.2 -1.4
v 0.9 0.2 -1.4
v 0.9 0.3 0.5
v 1 0.3 0.5
v 0.8 0.3 0.4
v 0.9 0.3 0.4
v 1 0.3 0.4
v 1.1 0.3 0.4
v 0.8 0.3 0.3
v 0.9 0.3 0.3
v 1 0.3 0.3
v 1.1 0.3 0.3
v 0.9 0.3 0.2
v 1 0.3 0.2
v -0.3 0.3 -0.3
v -0.2 0.3 -0.3
v -0.4 0.3 -0.4
v -0.3 0.3 -0.4
v -0.2 0.3 -0.4
v -0.0999999 0.3 -0.4
v -0.4 0.3 -0.5
v -0.3 0.3 -0.5
v -0.2 0.3 -0.5
v -0.0999999 0.3 -0.5
v -0.3 0.3 -0.6
v -0.2 0.3 -0.6

# faces
f 3/1/1 2/1/1 1/1/1
f 4/1/1 2/1/1 3/1/1
f 9/2/1 6/2/1 5/2/1
f 10/2/1 6/2/1 9/2/1
f 11/2/1 8/2/1 7/2/1
f 12/2/1 8/2/1 11/2/1
f 15/1/1 14/1/1 13/1/1
f 16/1/1 14/1/1 15/1/1
f 19/4/1 18/4/1 17/4/1
f 20/4/1 18/4/1 19/4/1
f 24/2/1 22/2/1 21/2/1
f 25/2/1 22/2/1 24/2/1
f 27/4/1 24/4/1 23/4/1
f 28/4/1 24/4/1 27/4/1
f 29/4/1 26/4/1 25/4/1
f 30/4/1 26/4/1 29/4/1
f 33/2/1 32/2/1 31/2/1
f 34/2/1 32/2/1 33/2/1
f 37/3/1 36/3/1 35/3/1
f 38/3/1 36/3/1 37/3/1
f 42/2/1 40/2/1 39/2/1
f 43/2/1 40/2/1 42/2/1
f 45/3/1 42/3/1 41/3/1
f 46/3/1 42/3/1 45/3/1
f 47/3/1 44/3/1 43/3/1
f 48/3/1 44/3/1 47/3/1
f 51/2/1 50/2/1 49/2/1
f 52/2/1 50/2/1 51/2/1
f 55/2/1 54/2/1 53/2/1
f 56/2/1 54/2/1 55/2/1
f 57/2/2 58/2/2 61/2/2
f 61/2/2 58/2/2 62/2/2
f 59/2/2 60/2/2 63/2/2
f 63/2/2 60/2/2 64/2/2
f 65/1/2 66/1/2 67/1/2
f 67/1/2 66/1/2 68/1/2
f 69/2/2 70/2/2 72/2/2
f 72/2/2 70/2/2 73/2/2
f 71/4/2 72/4/2 75/4/2
f 75/4/2 72/4/2 76/4/2
f 73/4/2 74/4/2 77/4/2
f 77/4/2 74/4/2 78/4/2
f 79/4/2 80/4/2 81/4/2
f 81/4/2 80/4/2 82/4/2
f 83/2/2 84/2/2 85/2/2
f 85/2/2 84/2/2 86/2/2
f 87/2/2 88/2/2 90/2/2
f 90/2/2 88/2/2 91/2/2
f 89/3/2 90/3/2 93/3/2
f 93/3/2 90/3/2 94/3/2
f 91/3/2 92/3/2 95/3/2
f 95/3/2 92/3/2 96/3/2
f 97/3/2 98/3/2 99/3/2
f 99/3/2 98/3/2 100/3/2
f 101/2/2 102/2/2 103/2/2
f 103/2/2 102/2/2 104/2/2
f 105/2/2 106/2/2 107/2/2
f 107/2/2 106/2/2 108/2/2
f 109/1/2 110/1/2 111/1/2
f 111/1/2 110/1/2 112/1/2
f 115/1/3 114/1/3 113/1/3
f 116/1/3 114/1/3 115/1/3
f 119/2/3 118/2/3 117/2/3
f 120/2/3 118/2/3 119/2/3
f 123/1/3 122/1/3 121/1/3
f 124/1/3 122/1/3 123/1/3
f 127/2/3 126/2/3 125/2/3
f 128/2/3 126/2/3 127/2/3
f 131/3/3 130/3/3 129/3/3
f 132/3/3 130/3/3 131/3/3
f 136/3/3 134/3/3 133/3/3
f 137/3/3 134/3/3 136/3/3
f 138/2/3 136/2/3 135/2/3
f 139/2/3 136/2/3 138/2/3
f 141/3/3 140/3/3 139/3/3
f 142/3/3 140/3/3 141/3/3
f 145/4/3 144/4/3 143/4/3
f 146/4/3 144/4/3 145/4/3
f 150/4/3 148/4/3 147/4/3
f 151/4/3 148/4/3 150/4/3
f 152/2/3 150/2/3 149/2/3
f 153/2/3 150/2/3 152/2/3
f 155/4/3 154/4/3 153/4/3
f 156/4/3 154/4/3 155/4/3
f 159/2/3 158/2/3 157/2/3
f 160/2/3 158/2/3 159/2/3
f 163/2/3 162/2/3 161/2/3
f 164/2/3 162/2/3 163/2/3
f 167/2/3 166/2/3 165/2/3
f 168/2/3 166/2/3 167/2/3
f 169/2/4 170/2/4 171/2/4
f 171/2/4 170/2/4 172/2/4
f 173/1/4 174/1/4 175/1/4
f 175/1/4 174/1/4 176/1/4
f 177/2/4 178/2/4 179/2/4
f 179/2/4 178/2/4 180/2/4
f 181/3/4 182/3/4 184/3/4
f 184/3/4 182/3/4 185/3/4
f 183/2/4 184/2/4 186/2/4
f 186/2/4 184/2/4 187/2/4
f 187/3/4 188/3/4 189/3/4
f 189/3/4 188/3/4 190/3/4
f 191/3/4 192/3/4 193/3/4
f 193/3/4 192/3/4 194/3/4
f 195/4/4 196/4/4 198/4/4
f 198/4/4 196/4/4 199/4/4
f 197/2/4 198/2/4 200/2/4
f 200/2/4 198/2/4 201/2/4
f 201/4/4 202/4/4 203/4/4
f 203/4/4 202/4/4 204/4/4
f 205/4/4 206/4/4 207/4/4
f 207/4/4 206/4/4 208/4/4
f 209/2/4 210/2/4 211/2/4
f 211/2/4 210/2/4 212/2/4
f 213/2/4 214/2/4 215/2/4
f 215/2/4 214/2/4 216/2/4
f 217/2/4 218/2/4 219/2/4
f 219/2/4 218/2/4 220/2/4
f 221/1/4 222/1/4 223/1/4
f 223/1/4 222/1/4 224/1/4
f 227/1/5 226/1/5 225/1/5
f 228/1/5 226/1/5 227/1/5
f 232/3/5 230/3/5 229/3/5
f 233/3/5 230/3/5 232/3/5
f 235/3/5 232/3/5 231/3/5
f 236/3/5 232/3/5 235/3/5
f 237/3/5 234/3/5 233/3/5
f 238/3/5 234/3/5 237/3/5
f 239/3/5 237/3/5 236/3/5
f 240/3/5 237/3/5 239/3/5
f 244/4/5 242/4/5 241/4/5
f 245/4/5 242/4/5 244/4/5
f 247/4/5 244/4/5 243/4/5
f 248/4/5 244/4/5 247/4/5
f 249/4/5 246/4/5 245/4/5
f 250/4/5 246/4/5 249/4/5
f 251/4/5 249/4/5 248/4/5
f 252/4/5 249/4/5 251/4/5
f 253/1/6 254/1/6 255/1/6
f 255/1/6 254/1/6 256/1/6
f 253/1/6 255/1/6 257/1/6
f 257/1/6 255/1/6 258/1/6
f 258/1/6 255/1/6 259/1/6
f 256/1/6 254/1/6 260/1/6
f 253/1/6 257/1/6 261/1/6
f 258/1/6 259/1/6 262/1/6
f 259/1/6 260/1/6 262/1/6
f 253/1/6 261/1/6 263/1/6
f 261/1/6 262/1/6 263/1/6
f 263/1/6 262/1/6 264/1/6
f 253/1/6 263/1/6 265/1/6
f 264/1/6 262/1/6 266/1/6
f 262/1/6 260/1/6 267/1/6
f 265/1/6 266/1/6 267/1/6
f 266/1/6 262/1/6 267/1/6
f 267/1/6 260/1/6 268/1/6
f 265/1/6 267/1/6 269/1/6
f 268/1/6 260/1/6 270/1/6
f 265/1/6 269/1/6 271/1/6
f 269/1/6 270/1/6 271/1/6
f 271/1/6 270/1/6 272/1/6
f 265/1/6 271/1/6 273/1/6
f 272/1/6 270/1/6 274/1/6
f 260/1/6 254/1/6 275/1/6
f 273/1/6 274/1/6 275/1/6
f 274/1/6 270/1/6 275/1/6
f 270/1/6 260/1/6 275/1/6
f 275/1/6 254/1/6 276/1/6
f 273/1/6 275/1/6 277/1/6
f 276/1/6 254/1/6 278/1/6
f 253/1/6 265/1/6 279/1/6
f 277/1/6 278/1/6 279/1/6
f 265/1/6 273/1/6 279/1/6
f 273/1/6 277/1/6 279/1/6
f 279/1/6 278/1/6 280/1/6
f 253/1/6 279/1/6 281/1/6
f 280/1/6 278/1/6 282/1/6
f 282/1/6 278/1/6 283/1/6
f 283/1/6 278/1/6 284/1/6
f 281/1/6 282/1/6 285/1/6
f 282/1/6 283/1/6 285/1/6
f 284/1/6 278/1/6 286/1/6
f 253/1/6 281/1/6 287/1/6
f 285/1/6 286/1/6 287/1/6
f 281/1/6 285/1/6 287/1/6
f 278/1/6 254/1/6 288/1/6
f 287/1/6 286/1/6 288/1/6
f 286/1/6 278/1/6 288/1/6
f 289/2/6 290/2/6 293/2/6
f 293/2/6 290/2/6 294/2/6
f 291/1/6 292/1/6 295/1/6
f 295/1/6 292/1/6 296/1/6
f 297/2/6 298/2/6 299/2/6
f 299/2/6 298/2/6 300/2/6
f 301/2/6 302/2/6 303/2/6
f 303/2/6 302/2/6 304/2/6
f 305/2/6 306/2/6 307/2/6
f 307/2/6 306/2/6 308/2/6
f 309/2/6 310/2/6 311/2/6
f 311/2/6 310/2/6 312/2/6
f 313/3/6 314/3/6 316/3/6
f 316/3/6 314/3/6 317/3/6
f 315/3/6 316/3/6 319/3/6
f 316/4/6 317/4/6 320/4/6
f 319/3/6 316/3/6 320/3/6
f 317/3/6 318/3/6 321/3/6
f 320/4/6 317/4/6 321/4/6
f 321/3/6 318/3/6 322/3/6
f 320/3/6 321/3/6 323/3/6
f 323/3/6 321/3/6 324/3/6
f 325/4/6 326/4/6 328/4/6
f 328/4/6 326/4/6 329/4/6
f 327/4/6 328/4/6 331/4/6
f 328/3/6 329/3/6 332/3/6
f 331/4/6 328/4/6 332/4/6
f 329/4/6 330/4/6 333/4/6
f 332/3/6 329/3/6 333/3/6
f 333/4/6 330/4/6 334/4/6
f 332/4/6 333/4/6 335/4/6
f 335/4/6 333/4/6 336/4/6
