# MagicaVoxel @ Ephtracy

# group
o 

# material
mtllib plane1.mtl
usemtl palette

# normals
vn -1 0 0
vn 1 0 0
vn 0 0 1
vn 0 0 -1
vn 0 -1 0
vn 0 1 0

# texcoords
vt 0.0488281 0.5
vt 0.0527344 0.5
vt 0.0566406 0.5
vt 0.123047 0.5

# verts
v -2 0 2
v -2 0 -2
v -2 0.1 2
v -2 0.1 -2
v -1.3 0.1 0.8
v -1.3 0.1 0.7
v -1.3 0.1 -1.2
v -1.3 0.1 -1.3
v -1.3 0.2 0.8
v -1.3 0.2 0.7
v -1.3 0.2 -1.2
v -1.3 0.2 -1.3
v -0.6 0.1 1.4
v -0.6 0.1 1.3
v -0.6 0.2 1.4
v -0.6 0.2 1.3
v -0.3 0.1 -0.4
v -0.3 0.1 -0.5
v -0.3 0.2 -0.4
v -0.3 0.2 -0.5
v -0.3 0.3 -0.4
v -0.3 0.3 -0.5
v 0.7 0.1 -1.3
v 0.7 0.1 -1.4
v 0.7 0.2 -1.3
v 0.7 0.2 -1.4
v 0.9 0.1 0.4
v 0.9 0.1 0.3
v 0.9 0.2 0.4
v 0.9 0.2 0.3
v 0.9 0.3 0.4
v 0.9 0.3 0.3
v 1.3 0.1 1.5
v 1.3 0.1 1.4
v 1.3 0.2 1.5
v 1.3 0.2 1.4
v 1.4 0.1 -0.6
v 1.4 0.1 -0.7
v 1.4 0.2 -0.6
v 1.4 0.2 -0.7
v -1.2 0.1 0.8
v -1.2 0.1 0.7
v -1.2 0.1 -1.2
v -1.2 0.1 -1.3
v -1.2 0.2 0.8
v -1.2 0.2 0.7
v -1.2 0.2 -1.2
v -1.2 0.2 -1.3
v -0.5 0.1 1.4
v -0.5 0.1 1.3
v -0.5 0.2 1.4
v -0.5 0.2 1.3
v -0.2 0.1 -0.4
v -0.2 0.1 -0.5
v -0.2 0.2 -0.4
v -0.2 0.2 -0.5
v -0.2 0.3 -0.4
v -0.2 0.3 -0.5
v 0.9 0.1 -1.3
v 0.9 0.1 -1.4
v 0.9 0.2 -1.3
v 0.9 0.2 -1.4
v 1 0.1 0.4
v 1 0.1 0.3
v 1 0.2 0.4
v 1 0.2 0.3
v 1 0.3 0.4
v 1 0.3 0.3
v 1.4 0.1 1.5
v 1.4 0.1 1.4
v 1.4 0.2 1.5
v 1.4 0.2 1.4
v 1.5 0.1 -0.6
v 1.5 0.1 -0.7
v 1.5 0.2 -0.6
v 1.5 0.2 -0.7
v 2 0 2
v 2 0 -2
v 2 0.1 2
v 2 0.1 -2
v -2 0 2
v -2 0.1 2
v 2 0 2
v 2 0.1 2
v 1.3 0.1 1.5
v 1.3 0.2 1.5
v 1.4 0.1 1.5
v 1.4 0.2 1.5
v -0.6 0.1 1.4
v -0.6 0.2 1.4
v -0.5 0.1 1.4
v -0.5 0.2 1.4
v -1.3 0.1 0.8
v -1.3 0.2 0.8
v -1.2 0.1 0.8
v -1.2 0.2 0.8
v 0.9 0.1 0.4
v 0.9 0.2 0.4
v 0.9 0.3 0.4
v 1 0.1 0.4
v 1 0.2 0.4
v 1 0.3 0.4
v -0.3 0.1 -0.4
v -0.3 0.2 -0.4
v -0.3 0.3 -0.4
v -0.2 0.1 -0.4
v -0.2 0.2 -0.4
v -0.2 0.3 -0.4
v 1.4 0.1 -0.6
v 1.4 0.2 -0.6
v 1.5 0.1 -0.6
v 1.5 0.2 -0.6
v -1.3 0.1 -1.2
v -1.3 0.2 -1.2
v -1.2 0.1 -1.2
v -1.2 0.2 -1.2
v 0.7 0.1 -1.3
v 0.7 0.2 -1.3
v 0.9 0.1 -1.3
v 0.9 0.2 -1.3
v 1.3 0.1 1.4
v 1.3 0.2 1.4
v 1.4 0.1 1.4
v 1.4 0.2 1.4
v -0.6 0.1 1.3
v -0.6 0.2 1.3
v -0.5 0.1 1.3
v -0.5 0.2 1.3
v -1.3 0.1 0.7
v -1.3 0.2 0.7
v -1.2 0.1 0.7
v -1.2 0.2 0.7
v 0.9 0.1 0.3
v 0.9 0.2 0.3
v 0.9 0.3 0.3
v 1 0.1 0.3
v 1 0.2 0.3
v 1 0.3 0.3
v -0.3 0.1 -0.5
v -0.3 0.2 -0.5
v -0.3 0.3 -0.5
v -0.2 0.1 -0.5
v -0.2 0.2 -0.5
v -0.2 0.3 -0.5
v 1.4 0.1 -0.7
v 1.4 0.2 -0.7
v 1.5 0.1 -0.7
v 1.5 0.2 -0.7
v -1.3 0.1 -1.3
v -1.3 0.2 -1.3
v -1.2 0.1 -1.3
v -1.2 0.2 -1.3
v 0.7 0.1 -1.4
v 0.7 0.2 -1.4
v 0.9 0.1 -1.4
v 0.9 0.2 -1.4
v -2 0 -2
v -2 0.1 -2
v 2 0 -2
v 2 0.1 -2
v -2 0 2
v 2 0 2
v -2 0 -2
v 2 0 -2
v -2 0.1 2
v 2 0.1 2
v 1.3 0.1 1.5
v 1.4 0.1 1.5
v -0.6 0.1 1.4
v -0.5 0.1 1.4
v 1.3 0.1 1.4
v 1.4 0.1 1.4
v -0.6 0.1 1.3
v -0.5 0.1 1.3
v -1.3 0.1 0.8
v -1.2 0.1 0.8
v -1.3 0.1 0.7
v -1.2 0.1 0.7
v 0.9 0.1 0.4
v 1 0.1 0.4
v 0.9 0.1 0.3
v 1 0.1 0.3
v -0.3 0.1 -0.4
v -0.2 0.1 -0.4
v -0.3 0.1 -0.5
v -0.2 0.1 -0.5
v 1.4 0.1 -0.6
v 1.5 0.1 -0.6
v 1.4 0.1 -0.7
v 1.5 0.1 -0.7
v -1.3 0.1 -1.2
v -1.2 0.1 -1.2
v -1.3 0.1 -1.3
v -1.2 0.1 -1.3
v 0.7 0.1 -1.3
v 0.9 0.1 -1.3
v 0.7 0.1 -1.4
v 0.9 0.1 -1.4
v -2 0.1 -2
v 2 0.1 -2
v 1.3 0.2 1.5
v 1.4 0.2 1.5
v -0.6 0.2 1.4
v -0.5 0.2 1.4
v 1.3 0.2 1.4
v 1.4 0.2 1.4
v -0.6 0.2 1.3
v -0.5 0.2 1.3
v -1.3 0.2 0.8
v -1.2 0.2 0.8
v -1.3 0.2 0.7
v -1.2 0.2 0.7
v 1.4 0.2 -0.6
v 1.5 0.2 -0.6
v 1.4 0.2 -0.7
v 1.5 0.2 -0.7
v -1.3 0.2 -1.2
v -1.2 0.2 -1.2
v -1.3 0.2 -1.3
v -1.2 0.2 -1.3
v 0.7 0.2 -1.3
v 0.9 0.2 -1.3
v 0.7 0.2 -1.4
v 0.9 0.2 -1.4
v 0.9 0.3 0.4
v 1 0.3 0.4
v 0.9 0.3 0.3
v 1 0.3 0.3
v -0.3 0.3 -0.4
v -0.2 0.3 -0.4
v -0.3 0.3 -0.5
v -0.2 0.3 -0.5

# faces
f 3/1/1 2/1/1 1/1/1
f 4/1/1 2/1/1 3/1/1
f 9/2/1 6/2/1 5/2/1
f 10/2/1 6/2/1 9/2/1
f 11/2/1 8/2/1 7/2/1
f 12/2/1 8/2/1 11/2/1
f 15/1/1 14/1/1 13/1/1
f 16/1/1 14/1/1 15/1/1
f 19/2/1 18/2/1 17/2/1
f 20/2/1 18/2/1 19/2/1
f 21/4/1 20/4/1 19/4/1
f 22/4/1 20/4/1 21/4/1
f 25/2/1 24/2/1 23/2/1
f 26/2/1 24/2/1 25/2/1
f 29/2/1 28/2/1 27/2/1
f 30/2/1 28/2/1 29/2/1
f 31/3/1 30/3/1 29/3/1
f 32/3/1 30/3/1 31/3/1
f 35/2/1 34/2/1 33/2/1
f 36/2/1 34/2/1 35/2/1
f 39/2/1 38/2/1 37/2/1
f 40/2/1 38/2/1 39/2/1
f 41/2/2 42/2/2 45/2/2
f 45/2/2 42/2/2 46/2/2
f 43/2/2 44/2/2 47/2/2
f 47/2/2 44/2/2 48/2/2
f 49/1/2 50/1/2 51/1/2
f 51/1/2 50/1/2 52/1/2
f 53/2/2 54/2/2 55/2/2
f 55/2/2 54/2/2 56/2/2
f 55/4/2 56/4/2 57/4/2
f 57/4/2 56/4/2 58/4/2
f 59/2/2 60/2/2 61/2/2
f 61/2/2 60/2/2 62/2/2
f 63/2/2 64/2/2 65/2/2
f 65/2/2 64/2/2 66/2/2
f 65/3/2 66/3/2 67/3/2
f 67/3/2 66/3/2 68/3/2
f 69/2/2 70/2/2 71/2/2
f 71/2/2 70/2/2 72/2/2
f 73/2/2 74/2/2 75/2/2
f 75/2/2 74/2/2 76/2/2
f 77/1/2 78/1/2 79/1/2
f 79/1/2 78/1/2 80/1/2
f 83/1/3 82/1/3 81/1/3
f 84/1/3 82/1/3 83/1/3
f 87/2/3 86/2/3 85/2/3
f 88/2/3 86/2/3 87/2/3
f 91/1/3 90/1/3 89/1/3
f 92/1/3 90/1/3 91/1/3
f 95/2/3 94/2/3 93/2/3
f 96/2/3 94/2/3 95/2/3
f 100/2/3 98/2/3 97/2/3
f 101/3/3 99/3/3 98/3/3
f 101/2/3 98/2/3 100/2/3
f 102/3/3 99/3/3 101/3/3
f 106/2/3 104/2/3 103/2/3
f 107/4/3 105/4/3 104/4/3
f 107/2/3 104/2/3 106/2/3
f 108/4/3 105/4/3 107/4/3
f 111/2/3 110/2/3 109/2/3
f 112/2/3 110/2/3 111/2/3
f 115/2/3 114/2/3 113/2/3
f 116/2/3 114/2/3 115/2/3
f 119/2/3 118/2/3 117/2/3
f 120/2/3 118/2/3 119/2/3
f 121/2/4 122/2/4 123/2/4
f 123/2/4 122/2/4 124/2/4
f 125/1/4 126/1/4 127/1/4
f 127/1/4 126/1/4 128/1/4
f 129/2/4 130/2/4 131/2/4
f 131/2/4 130/2/4 132/2/4
f 133/2/4 134/2/4 136/2/4
f 134/3/4 135/3/4 137/3/4
f 136/2/4 134/2/4 137/2/4
f 137/3/4 135/3/4 138/3/4
f 139/2/4 140/2/4 142/2/4
f 140/4/4 141/4/4 143/4/4
f 142/2/4 140/2/4 143/2/4
f 143/4/4 141/4/4 144/4/4
f 145/2/4 146/2/4 147/2/4
f 147/2/4 146/2/4 148/2/4
f 149/2/4 150/2/4 151/2/4
f 151/2/4 150/2/4 152/2/4
f 153/2/4 154/2/4 155/2/4
f 155/2/4 154/2/4 156/2/4
f 157/1/4 158/1/4 159/1/4
f 159/1/4 158/1/4 160/1/4
f 163/1/5 162/1/5 161/1/5
f 164/1/5 162/1/5 163/1/5
f 165/1/6 166/1/6 167/1/6
f 167/1/6 166/1/6 168/1/6
f 165/1/6 167/1/6 169/1/6
f 169/1/6 167/1/6 170/1/6
f 170/1/6 167/1/6 171/1/6
f 168/1/6 166/1/6 172/1/6
f 165/1/6 169/1/6 173/1/6
f 170/1/6 171/1/6 174/1/6
f 171/1/6 172/1/6 174/1/6
f 165/1/6 173/1/6 175/1/6
f 173/1/6 174/1/6 175/1/6
f 175/1/6 174/1/6 176/1/6
f 165/1/6 175/1/6 177/1/6
f 176/1/6 174/1/6 178/1/6
f 174/1/6 172/1/6 179/1/6
f 177/1/6 178/1/6 179/1/6
f 178/1/6 174/1/6 179/1/6
f 179/1/6 172/1/6 180/1/6
f 177/1/6 179/1/6 181/1/6
f 180/1/6 172/1/6 182/1/6
f 177/1/6 181/1/6 183/1/6
f 181/1/6 182/1/6 183/1/6
f 183/1/6 182/1/6 184/1/6
f 177/1/6 183/1/6 185/1/6
f 184/1/6 182/1/6 186/1/6
f 172/1/6 166/1/6 187/1/6
f 185/1/6 186/1/6 187/1/6
f 186/1/6 182/1/6 187/1/6
f 182/1/6 172/1/6 187/1/6
f 187/1/6 166/1/6 188/1/6
f 185/1/6 187/1/6 189/1/6
f 188/1/6 166/1/6 190/1/6
f 165/1/6 177/1/6 191/1/6
f 189/1/6 190/1/6 191/1/6
f 177/1/6 185/1/6 191/1/6
f 185/1/6 189/1/6 191/1/6
f 191/1/6 190/1/6 192/1/6
f 165/1/6 191/1/6 193/1/6
f 192/1/6 190/1/6 194/1/6
f 194/1/6 190/1/6 195/1/6
f 195/1/6 190/1/6 196/1/6
f 193/1/6 194/1/6 197/1/6
f 194/1/6 195/1/6 197/1/6
f 196/1/6 190/1/6 198/1/6
f 165/1/6 193/1/6 199/1/6
f 197/1/6 198/1/6 199/1/6
f 193/1/6 197/1/6 199/1/6
f 190/1/6 166/1/6 200/1/6
f 199/1/6 198/1/6 200/1/6
f 198/1/6 190/1/6 200/1/6
f 201/2/6 202/2/6 205/2/6
f 205/2/6 202/2/6 206/2/6
f 203/1/6 204/1/6 207/1/6
f 207/1/6 204/1/6 208/1/6
f 209/2/6 210/2/6 211/2/6
f 211/2/6 210/2/6 212/2/6
f 213/2/6 214/2/6 215/2/6
f 215/2/6 214/2/6 216/2/6
f 217/2/6 218/2/6 219/2/6
f 219/2/6 218/2/6 220/2/6
f 221/2/6 222/2/6 223/2/6
f 223/2/6 222/2/6 224/2/6
f 225/3/6 226/3/6 227/3/6
f 227/3/6 226/3/6 228/3/6
f 229/4/6 230/4/6 231/4/6
f 231/4/6 230/4/6 232/4/6
